HIERARCHY
ROOT Hips
{
  OFFSET -27.3825 93.2414 -29.4013
  CHANNELS 6 Xposition Yposition Zposition Zrotation Xrotation Yrotation
  JOINT LeftUpLeg
  {
    OFFSET 9.63379 -0.250344 0
    CHANNELS 6 Xposition Yposition Zposition Zrotation Xrotation Yrotation
    JOINT LeftLeg
    {
      OFFSET 0 -40.4779 -1.71313
      CHANNELS 6 Xposition Yposition Zposition Zrotation Xrotation Yrotation
      JOINT LeftFoot
      {
        OFFSET 0.0126047 -40.4416 -0.864524
        CHANNELS 6 Xposition Yposition Zposition Zrotation Xrotation Yrotation
        JOINT LeftToeBase
        {
          OFFSET -0.183287 -12.1867 8.28226
          CHANNELS 6 Xposition Yposition Zposition Zrotation Xrotation Yrotation
          End Site
          {
            OFFSET 0 0 9.15615
          }
        }
      }
    }
  }
  JOINT RightUpLeg
  {
    OFFSET -9.63379 -0.250344 0
    CHANNELS 6 Xposition Yposition Zposition Zrotation Xrotation Yrotation
    JOINT RightLeg
    {
      OFFSET 0 -40.478 -1.71313
      CHANNELS 6 Xposition Yposition Zposition Zrotation Xrotation Yrotation
      JOINT RightFoot
      {
        OFFSET -0.0126047 -40.4414 -0.864524
        CHANNELS 6 Xposition Yposition Zposition Zrotation Xrotation Yrotation
        JOINT RightToeBase
        {
          OFFSET 0.183287 -12.1867 8.28226
          CHANNELS 6 Xposition Yposition Zposition Zrotation Xrotation Yrotation
          End Site
          {
            OFFSET 0.00319481 0 9.156
          }
        }
      }
    }
  }
  JOINT Spine
  {
    OFFSET 0 5.60909 -1.89659
    CHANNELS 6 Xposition Yposition Zposition Zrotation Xrotation Yrotation
    JOINT Spine1
    {
      OFFSET 0 6.56349 1.09934
      CHANNELS 6 Xposition Yposition Zposition Zrotation Xrotation Yrotation
      JOINT Spine2
      {
        OFFSET 0 7.57662 1.04304
        CHANNELS 6 Xposition Yposition Zposition Zrotation Xrotation Yrotation
        JOINT Spine3
        {
          OFFSET 0 8.29213 0.399731
          CHANNELS 6 Xposition Yposition Zposition Zrotation Xrotation Yrotation
          JOINT Spine4
          {
            OFFSET 0 8.9581 -0.526302
            CHANNELS 6 Xposition Yposition Zposition Zrotation Xrotation Yrotation
            JOINT Neck
            {
              OFFSET 0 18.4163 -4.35419
              CHANNELS 6 Xposition Yposition Zposition Zrotation Xrotation Yrotation
              JOINT Head
              {
                OFFSET 0 8.97127 1.78542
                CHANNELS 6 Xposition Yposition Zposition Zrotation Xrotation Yrotation
                End Site
                {
                  OFFSET 0 19.3737 0.971395
                }
              }
            }
            JOINT LeftShoulder
            {
              OFFSET 6.14423 15.3316 -3.79324
              CHANNELS 6 Xposition Yposition Zposition Zrotation Xrotation Yrotation
              JOINT LeftArm
              {
                OFFSET 9.01906 -1.11411 -1.79347
                CHANNELS 6 Xposition Yposition Zposition Zrotation Xrotation Yrotation
                JOINT LeftForeArm
                {
                  OFFSET 27.687 0 0
                  CHANNELS 6 Xposition Yposition Zposition Zrotation Xrotation Yrotation
                  JOINT LeftHand
                  {
                    OFFSET 27.8738 0 0
                    CHANNELS 6 Xposition Yposition Zposition Zrotation Xrotation Yrotation
                    End Site
                    {
                      OFFSET 0 0 0
                    }
                  }
                }
              }
            }
            JOINT RightShoulder
            {
              OFFSET -6.14423 15.3316 -3.79324
              CHANNELS 6 Xposition Yposition Zposition Zrotation Xrotation Yrotation
              JOINT RightArm
              {
                OFFSET -9.01884 -1.11411 -1.79347
                CHANNELS 6 Xposition Yposition Zposition Zrotation Xrotation Yrotation
                JOINT RightForeArm
                {
                  OFFSET -27.0381 0.00109999 0
                  CHANNELS 6 Xposition Yposition Zposition Zrotation Xrotation Yrotation
                  JOINT RightHand
                  {
                    OFFSET -28.5227 0 0
                    CHANNELS 6 Xposition Yposition Zposition Zrotation Xrotation Yrotation
                    End Site
                    {
                      OFFSET 0 0 0
                    }
                  }
                }
              }
            }
          }
        }
      }
    }
  }
}
MOTION
Frames:	7
Frame Time:	0.00833333
-20.807 90.353 -238.185 0.125638 7.49434 -1.82392 9.63379 -0.250344 -7.15256e-007 1.19148 -10.7722 7.34415 0 -40.4779 -1.71313 -3.26148 3.86095 0.0768547 0.0126047 -40.4416 -0.864524 -0.0409645 0.0635476 0.00197197 -0.183287 -12.1867 8.28226 1.22054e-011 -1.16919e-011 -1.75726e-013 -9.63379 -0.250344 -7.15256e-007 -4.04333 -12.5476 0.287376 0 -40.478 -1.71313 6.88118 11.452 0.838456 -0.0126047 -40.4414 -0.864524 -0.00129817 -3.41317 -0.00997702 0.183287 -12.1867 8.28226 6.1401e-012 -2.95501e-011 2.02213e-011 -2.64698e-023 5.60909 -1.89659 1.38954 -0.984134 -0.197132 0 6.56349 1.09934 -0.42598 -1.96261 -0.761179 0 7.57662 1.04304 -0.425846 -1.96207 -0.762648 0 8.29213 0.399731 -0.42577 -1.96152 -0.764119 0 8.9581 -0.526302 -0.425751 -1.96095 -0.765589 0 18.4163 -4.35419 -1.82877 3.26212 6.46211 1.05879e-022 8.97127 1.78542 2.72054 -0.218805 5.20385 6.14423 15.3316 -3.79324 -29.7759 1.95929 -1.95983 9.01906 -1.11411 -1.79347 -53.5444 -2.71401 -16.9541 27.687 0 0 8.789 24.8191 -7.9055e-011 27.8738 0 0 -0.38885 -2.71992 -9.94331 -6.14423 15.3316 -3.79324 34.7195 2.42384 2.4341 -9.01884 -1.11411 -1.79347 23.2384 34.3156 29.0578 -27.0381 0.00109999 5.96046e-008 -25.6306 17.9123 37.8816 -28.5227 0 0 -24.7876 -3.71639 5.8283 
-20.8013 90.3525 -238.171 0.128163 7.483 -1.8599 9.63379 -0.250344 -7.15256e-007 1.21014 -10.7519 7.37827 0 -40.4779 -1.71313 -3.29379 3.86904 0.0768554 0.0126047 -40.4416 -0.864524 -0.0409646 0.0649888 0.00197197 -0.183287 -12.1867 8.28226 1.22054e-011 -1.16919e-011 -1.75726e-013 -9.63379 -0.250344 -7.15256e-007 -4.05229 -12.5301 0.283152 0 -40.478 -1.71313 6.88769 11.4516 0.834414 -0.0126047 -40.4414 -0.864524 -0.00129878 -3.41668 -0.00997706 0.183287 -12.1867 8.28226 6.1401e-012 -2.95501e-011 2.02213e-011 -2.64698e-023 5.60909 -1.89659 1.39223 -0.981415 -0.19274 0 6.56349 1.09934 -0.422817 -1.95723 -0.751495 0 7.57662 1.04304 -0.422684 -1.95669 -0.75296 0 8.29213 0.399731 -0.422609 -1.95615 -0.754427 0 8.9581 -0.526302 -0.42259 -1.95559 -0.755893 0 18.4163 -4.35419 -1.87775 3.27949 6.46717 1.05879e-022 8.97127 1.78542 2.74129 -0.282647 5.19056 6.14423 15.3316 -3.79324 -29.7875 1.96133 -1.96375 9.01906 -1.11411 -1.79347 -53.5203 -2.58155 -16.9415 27.687 0 0 8.64705 25.1692 -7.92806e-011 27.8738 0 0 0.0787301 -2.55535 -9.40707 -6.14423 15.3316 -3.79324 34.8687 2.45567 2.48934 -9.01884 -1.11411 -1.79347 23.8169 33.4946 28.6345 -27.0381 0.00109999 5.96046e-008 -24.6012 19.8371 36.4103 -28.5227 0 0 -24.643 -3.68353 5.81159 
-20.7957 90.3521 -238.156 0.130285 7.47251 -1.89494 9.63379 -0.250344 -7.15256e-007 1.22804 -10.7326 7.41075 0 -40.4779 -1.71313 -3.32424 3.87772 0.0768562 0.0126047 -40.4416 -0.864524 -0.0409646 0.0665527 0.00197197 -0.183287 -12.1867 8.28226 1.22054e-011 -1.16919e-011 -1.75726e-013 -9.63379 -0.250344 -7.15256e-007 -4.06055 -12.5123 0.277086 0 -40.478 -1.71313 6.89316 11.4497 0.83125 -0.0126047 -40.4414 -0.864524 -0.00129932 -3.41977 -0.00997709 0.183287 -12.1867 8.28226 6.1401e-012 -2.95501e-011 2.02213e-011 -2.64698e-023 5.60909 -1.89659 1.39473 -0.978781 -0.188382 0 6.56349 1.09934 -0.419532 -1.95202 -0.74185 0 7.57662 1.04304 -0.4194 -1.95149 -0.743312 0 8.29213 0.399731 -0.419325 -1.95095 -0.744775 0 8.9581 -0.526302 -0.419306 -1.9504 -0.746237 0 18.4163 -4.35419 -1.92527 3.29573 6.47218 1.05879e-022 8.97127 1.78542 2.76025 -0.345847 5.17807 6.14423 15.3316 -3.79324 -29.7995 1.96335 -1.96758 9.01906 -1.11411 -1.79347 -53.4966 -2.45401 -16.9293 27.687 0 0 8.51008 25.5072 -7.95023e-011 27.8738 0 0 0.527449 -2.39564 -8.88892 -6.14423 15.3316 -3.79324 35.0125 2.4863 2.54249 -9.01884 -1.11411 -1.79347 24.3864 32.6719 28.2241 -27.0381 0.00109999 5.96046e-008 -23.4612 21.7584 34.9304 -28.5227 0 0 -24.4863 -3.64588 5.77887 
-20.7907 90.3522 -238.14 0.130838 7.46548 -1.92622 9.63379 -0.250344 -7.15256e-007 1.24298 -10.7175 7.43665 0 -40.4779 -1.71313 -3.34727 3.8888 0.0768572 0.0126047 -40.4416 -0.864524 -0.0409647 0.0686077 0.00197197 -0.183287 -12.1867 8.28226 1.22054e-011 -1.16919e-011 -1.75726e-013 -9.63379 -0.250344 -7.15256e-007 -4.06596 -12.4931 0.263646 0 -40.478 -1.71313 6.89442 11.4417 0.831602 -0.0126047 -40.4414 -0.864524 -0.00129956 -3.42116 -0.00997711 0.183287 -12.1867 8.28226 6.1401e-012 -2.95501e-011 2.02213e-011 -2.64698e-023 5.60909 -1.89659 1.39647 -0.976489 -0.184156 0 6.56349 1.09934 -0.415752 -1.94749 -0.732365 0 7.57662 1.04304 -0.415621 -1.94698 -0.733823 0 8.29213 0.399731 -0.415546 -1.94644 -0.735281 0 8.9581 -0.526302 -0.415527 -1.9459 -0.736739 0 18.4163 -4.35419 -1.9669 3.30747 6.47698 1.05879e-022 8.97127 1.78542 2.77215 -0.406469 5.16872 6.14423 15.3316 -3.79324 -29.8125 1.96532 -1.9711 9.01906 -1.11411 -1.79347 -53.4735 -2.34618 -16.9183 27.687 0 0 8.39299 25.7969 -7.96956e-011 27.8738 0 0 0.910676 -2.25778 -8.44248 -6.14423 15.3316 -3.79324 35.1354 2.51219 2.58722 -9.01884 -1.11411 -1.79347 24.9639 31.856 27.8216 -27.0381 0.00109999 5.96046e-008 -22.1581 23.5206 33.3748 -28.5227 0 0 -24.2811 -3.58909 5.6821 
-20.787 90.353 -238.122 0.128665 7.4645 -1.95092 9.63379 -0.250344 -7.15256e-007 1.25274 -10.7097 7.45106 0 -40.4779 -1.71313 -3.35732 3.90407 0.0768586 0.0126047 -40.4416 -0.864524 -0.0409648 0.071522 0.00197197 -0.183287 -12.1867 8.28226 1.22054e-011 -1.16919e-011 -1.75726e-013 -9.63379 -0.250344 -7.15256e-007 -4.0664 -12.4713 0.237304 0 -40.478 -1.71313 6.88833 11.4232 0.838106 -0.0126047 -40.4414 -0.864524 -0.00129929 -3.41956 -0.00997709 0.183287 -12.1867 8.28226 6.1401e-012 -2.95501e-011 2.02213e-011 -2.64698e-023 5.60909 -1.89659 1.39686 -0.974797 -0.180161 0 6.56349 1.09934 -0.411103 -1.94417 -0.723158 0 7.57662 1.04304 -0.410973 -1.94366 -0.724611 0 8.29213 0.399731 -0.410899 -1.94314 -0.726065 0 8.9581 -0.526302 -0.41088 -1.9426 -0.727517 0 18.4163 -4.35419 -1.99825 3.31136 6.48141 1.05879e-022 8.97127 1.78542 2.77175 -0.462578 5.16488 6.14423 15.3316 -3.79324 -29.8273 1.96718 -1.97406 9.01906 -1.11411 -1.79347 -53.4516 -2.27286 -16.9096 27.687 0 0 8.31072 26.0019 -7.98342e-011 27.8738 0 0 1.18272 -2.15894 -8.1213 -6.14423 15.3316 -3.79324 35.2216 2.52978 2.61723 -9.01884 -1.11411 -1.79347 25.5663 31.0551 27.4217 -27.0381 0.00109999 5.96046e-008 -20.6503 24.957 31.6694 -28.5227 0 0 -23.9908 -3.49873 5.47326 
-20.7852 90.3551 -238.1 0.121298 7.47029 -1.96743 9.63379 -0.250344 -7.15256e-007 1.25621 -10.7126 7.44935 0 -40.4779 -1.71313 -3.34752 3.92907 0.0768609 0.0126047 -40.4416 -0.864524 -0.040965 0.0763917 0.00197197 -0.183287 -12.1867 8.28226 1.22054e-011 -1.16919e-011 -1.75726e-013 -9.63379 -0.250344 -7.15256e-007 -4.05894 -12.4424 0.18984 0 -40.478 -1.71313 6.87205 11.3859 0.853188 -0.0126047 -40.4414 -0.864524 -0.00129549 -3.412 -0.00997701 0.183287 -12.1867 8.28226 6.1401e-012 -2.95501e-011 2.02213e-011 -2.64698e-023 5.60909 -1.89659 1.39466 -0.973603 -0.176459 0 6.56349 1.09934 -0.404668 -1.94185 -0.71396 0 7.57662 1.04304 -0.404539 -1.94135 -0.715405 0 8.29213 0.399731 -0.404465 -1.94084 -0.716851 0 8.9581 -0.526302 -0.404447 -1.94031 -0.718297 0 18.4163 -4.35419 -2.01546 3.30878 6.48449 1.05879e-022 8.97127 1.78542 2.7517 -0.52042 5.1686 6.14423 15.3316 -3.79324 -29.8455 1.96958 -1.978 9.01906 -1.11411 -1.79347 -53.4322 -2.24448 -16.905 27.687 0 0 8.27386 26.1006 -7.99014e-011 27.8738 0 0 1.30854 -2.11198 -7.95669 -6.14423 15.3316 -3.79324 35.2598 2.53499 2.6243 -9.01884 -1.11411 -1.79347 26.2073 30.2684 27.0342 -27.0381 0.00109999 5.96046e-008 -18.948 26.07 29.775 -28.5227 0 0 -23.6457 -3.3677 5.09079 
-20.785 90.3583 -238.075 0.109519 7.48112 -1.97761 9.63379 -0.250344 -7.15256e-007 1.25486 -10.7239 7.43482 0 -40.4779 -1.71313 -3.32157 3.96258 0.076864 0.0126047 -40.4416 -0.864524 -0.0409652 0.0829715 0.00197197 -0.183287 -12.1867 8.28226 1.22054e-011 -1.16919e-011 -1.75726e-013 -9.63379 -0.250344 -7.15256e-007 -4.04495 -12.4073 0.124951 0 -40.478 -1.71313 6.84768 11.333 0.875086 -0.0126047 -40.4414 -0.864524 -0.00115755 -3.39933 -0.00997688 0.183287 -12.1867 8.28226 6.1401e-012 -2.95501e-011 2.02213e-011 -2.64698e-023 5.60909 -1.89659 1.39027 -0.972737 -0.172983 0 6.56349 1.09934 -0.396694 -1.9402 -0.704691 0 7.57662 1.04304 -0.396567 -1.93971 -0.706126 0 8.29213 0.399731 -0.396493 -1.9392 -0.707563 0 8.9581 -0.526302 -0.396475 -1.93868 -0.708999 0 18.4163 -4.35419 -2.02145 3.30199 6.48632 1.05879e-022 8.97127 1.78542 2.71555 -0.581283 5.17833 6.14423 15.3316 -3.79324 -29.8663 1.97253 -1.98306 9.01906 -1.11411 -1.79347 -53.4151 -2.25118 -16.904 27.687 0 0 8.27246 26.1172 -7.99128e-011 27.8738 0 0 1.32008 -2.1058 -7.91288 -6.14423 15.3316 -3.79324 35.2604 2.53018 2.61264 -9.01884 -1.11411 -1.79347 26.8771 29.4907 26.6612 -27.0381 0.00109999 5.96046e-008 -17.1021 26.9406 27.7274 -28.5227 0 0 -23.2684 -3.20528 4.56684 
